<?xml version="1.0" encoding="utf-8"?>
<!-- Generator: Adobe Illustrator 22.1.0, SVG Export Plug-In . SVG Version: 6.00 Build 0)  -->
<svg version="1.1" id="Layer_1" xmlns="http://www.w3.org/2000/svg" xmlns:xlink="http://www.w3.org/1999/xlink" x="0px" y="0px"
	 viewBox="0 0 1365.9 201.3" style="enable-background:new 0 0 1365.9 201.3;" xml:space="preserve">
<style type="text/css">
	.st0{fill:#FFFFFF;}
</style>
<g id="clouds">
	<g>
		<path class="st0" d="M0,0v40.5c6.4-4,12.4-8.6,17.9-13.8c10.8,28.5,38.3,48.8,70.6,48.8c22.9,0,43.5-10.2,57.3-26.4
			c19,14.7,42.8,23.4,68.7,23.4c38.3,0,72.1-19.1,92.4-48.3c13.6,13.2,32.1,21.3,52.6,21.3c27.3,0,51.2-14.5,64.4-36.1
			c3.4,0.7,6.9,1.1,10.6,1.1c5.8,0,11.3-1,16.4-2.8c19.7,32.8,55.5,54.8,96.6,54.8c28.4,0,54.3-10.5,74.1-27.8
			C640.4,49,664,57.5,689.5,57.5c27.9,0,53.3-10.1,73-26.9c12.6,9.4,28.1,14.9,45,14.9c23.3,0,44.2-10.6,58.1-27.2
			c4.7,1.5,9.7,2.2,14.9,2.2c12.7,0,24.3-4.7,33.1-12.4c15.6,43.4,57.1,74.4,105.9,74.4c42.1,0,78.7-23.1,98-57.3
			c4.7,1.5,9.8,2.3,15,2.3c11,0,21.1-3.5,29.4-9.5c13.4,12.1,31.1,19.5,50.6,19.5c22.1,0,41.9-9.5,55.7-24.6
			c12.3,18.2,29.7,32.5,50.2,41c12.9,13.7,29.2,24.2,47.5,30.1V0H0z"/>
	</g>
</g>
<polygon class="st0" points="159.7,178.2 135,133.2 166.3,107 150.7,88.6 173.2,70.5 162,52 175.8,52.2 186.9,71.2 165.4,88.3 
	181,105.1 146.4,137 "/>
<polygon class="st0" points="1221.4,113.5 1218.1,68.5 1252.7,59 1246.9,38.6 1271.5,32.3 1269.3,13.4 1280.2,18.6 1282.1,37.9 
	1258.8,43.7 1265.1,62.8 1225.8,75.7 "/>
<polygon class="st0" points="1295.9,201.3 1269.4,142.7 1311,112.9 1293.3,88.4 1323.2,67.8 1311,43.6 1328.2,45.2 1340.2,70.1 
	1311.7,89.3 1329.6,111.9 1283.2,148.5 "/>
</svg>
