<?xml version="1.0" encoding="utf-8"?>
<!-- Generator: Adobe Illustrator 22.1.0, SVG Export Plug-In . SVG Version: 6.00 Build 0)  -->
<svg version="1.1" id="Layer_1" xmlns="http://www.w3.org/2000/svg" xmlns:xlink="http://www.w3.org/1999/xlink" x="0px" y="0px"
	 viewBox="0 0 54.3 32.1" style="enable-background:new 0 0 54.3 32.1;" xml:space="preserve">
<style type="text/css">
	.st0{opacity:0.47;}
	.st1{clip-path:url(#SVGID_2_);fill:#010101;}
	.st2{clip-path:url(#SVGID_2_);}
	.st3{clip-path:url(#SVGID_4_);fill:url(#SVGID_5_);}
	.st4{clip-path:url(#SVGID_7_);fill:url(#SVGID_8_);}
	.st5{clip-path:url(#SVGID_2_);fill:#FFFFFF;}
</style>
<g class="st0">
	<g>
		<defs>
			<rect id="SVGID_1_" width="54.3" height="32.1"/>
		</defs>
		<clipPath id="SVGID_2_">
			<use xlink:href="#SVGID_1_"  style="overflow:visible;"/>
		</clipPath>
		<path class="st1" d="M27.9,32.1"/>
		<g class="st2">
			<defs>
				<path id="SVGID_3_" d="M47.4,19.7L47.4,19.7l-0.7,0l-0.1-0.7c-0.4-3.5-3.4-6.1-6.8-6.1c-0.4,0-0.8,0-1.2,0.1l-0.9,0.2l0.1-0.9
					c0-0.2,0-0.4,0-0.6c0-5.6-4.6-10.2-10.2-10.2c-4.2,0-8,2.6-9.5,6.6l-0.3,0.7L17,8.5c-1.3-0.5-2.7-0.7-4-0.7
					c-6.3,0-11.4,5.1-11.4,11.4c0,5.9,4.6,10.9,10.5,11.4l0.5,0h35c3,0,5.4-2.4,5.4-5.4C52.8,22.2,50.4,19.7,47.4,19.7"/>
			</defs>
			<clipPath id="SVGID_4_">
				<use xlink:href="#SVGID_3_"  style="overflow:visible;"/>
			</clipPath>
			
				<radialGradient id="SVGID_5_" cx="-283.2531" cy="406.9171" r="1" gradientTransform="matrix(43.625 0 0 -43.625 12382.9697 17771.8125)" gradientUnits="userSpaceOnUse">
				<stop  offset="0" style="stop-color:#F3F3F3"/>
				<stop  offset="0.1781" style="stop-color:#ECECEC"/>
				<stop  offset="0.4318" style="stop-color:#DADADA"/>
				<stop  offset="0.7294" style="stop-color:#BBBBBC"/>
				<stop  offset="1" style="stop-color:#99999A"/>
			</radialGradient>
			<rect x="1.5" y="1.5" class="st3" width="51.4" height="29.1"/>
		</g>
		<g class="st2">
			<defs>
				<path id="SVGID_6_" d="M47.7,18.5c-0.6-3.9-4-6.7-8-6.7c-0.3,0-0.6,0-0.9,0c0,0,0-0.1,0-0.1c0-6.3-5.1-11.4-11.4-11.4
					C22.9,0.3,18.8,3,17,7.2c-1.3-0.4-2.7-0.7-4.1-0.7c-7,0-12.6,5.7-12.6,12.6c0,6.5,5.1,12,11.6,12.6l0.5,0h35
					c3.7,0,6.6-3,6.6-6.6C54,21.6,51.2,18.7,47.7,18.5 M48.7,29.2c-0.4,0.1-0.9,0.2-1.3,0.2h-0.7h-2.1h-2.1h-2.1h-2.1h-2.1h-2.1
					h-2.1h-2.1h-2.1h-2.1h-2.1H22H20h-2.1h-2.1h-2.1h-1.3l-0.4,0c-0.1,0-0.2,0-0.3,0c-0.7-0.1-1.4-0.2-2.1-0.5
					c-0.7-0.2-1.4-0.6-2.1-1c-0.8-0.5-1.4-1-2.1-1.6c-0.9-0.9-1.6-1.9-2.1-3.1C3,22,2.7,20.6,2.7,19.2c0-1.5,0.3-2.8,0.9-4.1
					c0.5-1.1,1.2-2.2,2.1-3c0.6-0.6,1.3-1.2,2.1-1.6C8.3,10,9,9.7,9.7,9.4C10.4,9.2,11,9.1,11.8,9c0.4,0,0.8-0.1,1.2-0.1
					c0.3,0,0.6,0,0.9,0c0.7,0.1,1.4,0.2,2.1,0.4c0.2,0.1,0.5,0.1,0.7,0.2l1.4,0.5l0.4,0.2L19,8.5c0.2-0.6,0.6-1.2,0.9-1.8
					c0.6-0.8,1.3-1.6,2.1-2.2c0.6-0.5,1.3-0.9,2.1-1.2c0.7-0.3,1.3-0.5,2.1-0.6c0.4-0.1,0.9-0.1,1.3-0.1c0.2,0,0.5,0,0.7,0
					c0.7,0.1,1.4,0.2,2.1,0.4c0.7,0.2,1.4,0.6,2.1,1c0.8,0.5,1.5,1.1,2.1,1.8c1.1,1.3,1.8,2.9,2.1,4.6c0.1,0.4,0.1,0.8,0.1,1.3
					c0,0.2,0,0.3,0,0.6l-0.1,1.2l-0.1,1.3l0.1,0l2.1-0.4l0.3-0.1c0.3-0.1,0.7-0.1,1-0.1c0.3,0,0.5,0,0.7,0c0.7,0.1,1.4,0.3,2.1,0.7
					c0.8,0.5,1.5,1.2,2.1,2c0.4,0.7,0.7,1.5,0.8,2.3l0.2,1.7l1,0l0.7,0l0.1,0c0.5,0,0.9,0.1,1.3,0.2c0.8,0.3,1.5,0.8,2.1,1.5
					c0.5,0.7,0.9,1.6,0.9,2.6c0,1-0.3,1.8-0.9,2.6C50.3,28.4,49.6,28.9,48.7,29.2"/>
			</defs>
			<clipPath id="SVGID_7_">
				<use xlink:href="#SVGID_6_"  style="overflow:visible;"/>
			</clipPath>
			
				<radialGradient id="SVGID_8_" cx="-284.5075" cy="405.463" r="1" gradientTransform="matrix(35.8285 0 0 -35.8285 10220.626 14543.1514)" gradientUnits="userSpaceOnUse">
				<stop  offset="0" style="stop-color:#FFFFFF"/>
				<stop  offset="0.2025" style="stop-color:#FFFFFF"/>
				<stop  offset="0.5198" style="stop-color:#F9F9F9"/>
				<stop  offset="0.9516" style="stop-color:#E8E8E7"/>
				<stop  offset="1" style="stop-color:#E6E6E5"/>
			</radialGradient>
			<rect x="0.3" y="0.3" class="st4" width="53.8" height="31.5"/>
		</g>
		<path class="st5" d="M48,18.3c-0.8-3.9-4.2-6.8-8.2-6.8c-0.2,0-0.4,0-0.6,0C39.1,5.2,33.9,0,27.5,0C25.2,0,23,0.7,21,1.9
			c-1.8,1.2-3.3,2.9-4.2,4.9c-1.3-0.4-2.6-0.6-3.9-0.6C5.8,6.2,0,12,0,19.2C0,25.8,5.2,31.5,11.8,32l0.6,0h35c3.8,0,6.9-3.1,6.9-6.9
			C54.3,21.5,51.6,18.6,48,18.3 M2.4,12.6c0.1-0.1,0.2-0.2,0.2-0.4c0.5-0.8,1.2-1.6,1.9-2.2C5.2,9.4,6,8.9,6.7,8.5
			c0.7-0.4,1.4-0.7,2.2-1c0.7-0.2,1.4-0.4,2.2-0.5c0.6-0.1,1.2-0.1,1.9-0.1c0.1,0,0.2,0,0.3,0c0.7,0,1.4,0.1,2.1,0.2
			c0.5,0.1,1,0.2,1.5,0.4l0.2,0.1l0.1-0.2c0.1-0.2,0.2-0.4,0.3-0.5c0.5-1.1,1.3-2.1,2.2-2.9C20.1,3.4,20.5,3,21,2.7
			c0.3-0.2,0.5-0.4,0.8-0.5c0.7-0.4,1.4-0.7,2.1-1c0.7-0.2,1.4-0.4,2.2-0.5c0.5-0.1,0.9-0.1,1.4-0.1c0.3,0,0.5,0,0.8,0
			C29,0.6,29.7,0.8,30.4,1c0.8,0.2,1.5,0.5,2.2,0.8C33,2,33.5,2.3,34,2.7c0.2,0.2,0.5,0.4,0.7,0.6c0.8,0.7,1.6,1.5,2.2,2.5
			c1.1,1.7,1.8,3.8,1.8,6c0,0,0,0.1,0,0.1l0,0.3l0.3,0c0,0,0,0,0.1,0c0.3,0,0.5,0,0.8,0c0.5,0,0.9,0,1.4,0.1
			c0.8,0.1,1.5,0.4,2.2,0.7c0.8,0.4,1.5,0.9,2.1,1.6c1,1.1,1.8,2.5,2,4.1l0,0.2l0.1,0l0.1,0c0.7,0,1.4,0.2,2,0.4
			c0.7,0.3,1.4,0.7,1.9,1.2c0.1,0.1,0.2,0.1,0.2,0.2c1.2,1.2,1.9,2.7,1.9,4.5c0,1.8-0.7,3.3-1.9,4.5c-0.6,0.6-1.3,1.1-2.2,1.4
			c-0.7,0.3-1.4,0.4-2.2,0.4c-0.1,0-0.1,0-0.2,0h-2h-2.1h-2.2H39h-2.2h-2.2h-2.1h-2.2h-2.2h-2.2h-2.2h-2.1h-2.2h-2.2h-2.2h-2.1h-0.8
			l-0.5,0c-0.3,0-0.6-0.1-0.8-0.1c-0.7-0.1-1.5-0.3-2.2-0.5c-0.8-0.3-1.5-0.6-2.2-1c-0.2-0.1-0.5-0.3-0.7-0.4
			c-0.5-0.4-1-0.7-1.5-1.2c-0.7-0.7-1.4-1.4-1.9-2.2c-0.1-0.1-0.2-0.2-0.2-0.4c-1.2-1.9-1.9-4.1-1.9-6.5C0.6,16.8,1.2,14.5,2.4,12.6
			"/>
	</g>
</g>
</svg>
