<?xml version="1.0" encoding="utf-8"?>
<!-- Generator: Adobe Illustrator 22.1.0, SVG Export Plug-In . SVG Version: 6.00 Build 0)  -->
<svg version="1.1" id="Layer_1" xmlns="http://www.w3.org/2000/svg" xmlns:xlink="http://www.w3.org/1999/xlink" x="0px" y="0px"
	 viewBox="0 0 51 50.1" style="enable-background:new 0 0 51 50.1;" xml:space="preserve">
<style type="text/css">
	.st0{fill:#FFFFFF;}
</style>
<path class="st0" d="M49.4,40c-1.1-7.4-4-12.5-7.2-15.8c0.8,3.4,0.8,6.6,0.5,8.5c-1.1,6.3-7.1,15.1-14.5,17.4c5-4.3,7.6-9,8.9-13.2
	c-1,1.8-2.1,3.3-3,4.1c-4.5,4.4-14.3,7.9-21.5,5.2c8.2-0.6,13.6-3.8,17.1-7.3c-0.7,0.2-5.2,1.7-6.3,1.9c-6,1.3-16.1-1.1-20.9-7.4
	c6,3.3,11.3,4.1,15.7,3.6c-2.6-0.5-5.4-1.7-6.7-2.4C6,31.5-0.2,22.9,0,14.9c2.7,7,6.6,11.2,10.4,13.8c-1.5-3.1-2.2-6.3-2.3-8.2
	C7.9,14,11.8,4,18.5,0c-5.4,7.5-6.4,14.4-5.8,19.7C14,13.3,19,8.1,21.8,6.5c5.3-3.2,15.6-4.3,22.1,0C35,4.9,27.6,7.5,24.5,10.4
	c3.4-1.1,6.2-1.2,7.7-1.2c6.2,0.2,15.4,4.9,18.8,12.1c-5.1-4.6-10.2-6.6-14.5-7.2c1.7,0.7,3.9,2.1,6,3.9
	C46.3,20.9,51.3,32.2,49.4,40 M25.7,23.6c-1.3,0-2.1,1-2.1,2.2s0.8,2.3,2.1,2.3c1.3,0,2.3-1,2.3-2.2S27,23.6,25.7,23.6"/>
</svg>
