<?xml version="1.0" encoding="utf-8"?>
<!-- Generator: Adobe Illustrator 22.1.0, SVG Export Plug-In . SVG Version: 6.00 Build 0)  -->
<svg version="1.1" id="Layer_1" xmlns="http://www.w3.org/2000/svg" xmlns:xlink="http://www.w3.org/1999/xlink" x="0px" y="0px"
	 viewBox="0 0 239.7 61.3" style="enable-background:new 0 0 239.7 61.3;" xml:space="preserve">
<style type="text/css">
	.st0{fill:#FFFFFF;}
	.st1{fill:#D2D2D2;}
	.st2{fill:#1764AD;}
	.st3{fill:#F15A22;}
	.st4{fill:#252021;}
	.st5{fill:#F79B34;}
	.st6{fill:#FFFFFF;stroke:#3575E5;stroke-width:2;stroke-miterlimit:10;}
</style>
<g>
	<path class="st0" d="M151.8,58.6c-4.9,0-8.9-4-8.9-8.9s4-8.9,8.9-8.9c1.5,0,2.9,0.3,4.2,1l0.8,0.4l0.4-0.8c1.9-4,6-6.6,10.4-6.7
		c5.2,0,9.8,3.6,11.1,8.6h1.9c1.1-3.8,4.6-6.5,8.6-6.5c0.9,0,1.8,0.1,2.6,0.4l0.7,0.2l0.3-0.6c2.3-4.2,6.6-6.8,11.4-6.8l0,0h0.1
		c0.1,0,0.1,0,0.2,0h0.6l0.2-0.6c1.3-3.2,4.3-5.3,7.7-5.3c4.6,0,8.3,3.7,8.3,8.3c0,0.6-0.1,1.2-0.2,1.7l-0.3,1.4l1.3-0.4
		c1.1-0.3,2.2-0.5,3.4-0.5c6.5,0,11.8,5.3,11.8,11.7c0,6.1-4.5,11.1-10.5,11.7h-0.1c-0.3,0.1-0.6,0.1-0.9,0.1l-72.3,0.1h-0.2
		C152.8,58.5,152.3,58.6,151.8,58.6L151.8,58.6L151.8,58.6z"/>
	<path class="st1" d="M149.6,60.7c-5.2-1-9.2-5.6-9.2-11.1c0-6.2,5.1-11.3,11.3-11.3c1.3,0,2.7,0.2,3.9,0.7c2.5-4.1,7-6.7,11.9-6.7
		c5.2,0,9.8,2.9,12.2,7.2c2.1-3.1,5.6-5.1,9.4-5.1c0.7,0,1.4,0.1,2.1,0.2c2.7-4.2,7.2-6.8,12.2-7c1.9-3.6,5.5-5.9,9.6-5.9
		c5.9,0,10.7,4.8,10.7,10.7c0.6-0.1,1.2-0.1,1.8-0.1c7.8,0,14.2,6.3,14.2,14.1c0,7.3-5.4,13.3-12.6,14.1c-0.4,0.1-1,0.2-1.4,0.2
		h-72.1H149.6z M151.7,41.4c-4.5,0-8.2,3.7-8.2,8.2s3.7,8.2,8.2,8.2l0,0c0.5,0,0.9,0,1.4-0.1h0.3l72.4-0.1c0.2,0,0.5,0,0.7-0.1h0.1
		c5.6-0.6,9.9-5.3,9.9-11c0-6.1-5-11-11-11c-1.1,0-2.1,0.2-3.1,0.5l-2.5,0.8l0.5-2.6c0.1-0.5,0.2-1.1,0.2-1.6c0-4.2-3.4-7.6-7.6-7.6
		c-3.1,0-5.9,1.9-7.1,4.8l-0.4,1h-1.1c-0.1,0-0.1,0-0.2,0h-0.1c-4.5,0-8.6,2.5-10.8,6.4l-0.6,1.1l-1.2-0.4c-0.8-0.2-1.6-0.4-2.4-0.4
		c-3.8,0-7.2,2.7-8,6.5H178c-1-5-5.5-8.6-10.6-8.6c-4.2,0-8,2.5-9.8,6.2l-0.7,1.5l-1.5-0.8C154.4,41.7,153.1,41.4,151.7,41.4"/>
	<path class="st2" d="M158.7,47.8c-0.2,0-0.5,0.1-0.6,0.2c-0.2,0.1-0.3,0.3-0.4,0.4c-0.1,0.2-0.2,0.4-0.2,0.6s-0.1,0.4-0.1,0.6
		s0,0.4,0.1,0.6c0,0.2,0.1,0.4,0.2,0.6c0.1,0.2,0.2,0.3,0.4,0.4c0.2,0.1,0.4,0.2,0.6,0.2c0.4,0,0.7-0.1,0.9-0.3s0.3-0.5,0.4-0.8h1.4
		c-0.1,0.7-0.4,1.3-0.9,1.7s-1.1,0.6-1.8,0.6c-0.4,0-0.8-0.1-1.2-0.2c-0.4-0.1-0.7-0.3-0.9-0.6s-0.4-0.6-0.6-0.9
		c-0.1-0.4-0.2-0.7-0.2-1.2c0-0.4,0.1-0.8,0.2-1.2c0.1-0.4,0.3-0.7,0.6-1c0.2-0.3,0.5-0.5,0.9-0.6c0.4-0.2,0.8-0.2,1.2-0.2
		c0.3,0,0.7,0,1,0.1s0.6,0.2,0.8,0.4s0.4,0.4,0.6,0.7c0.2,0.3,0.2,0.6,0.3,0.9h-1.5C159.8,48.1,159.4,47.8,158.7,47.8"/>
	<path class="st2" d="M162.2,48.4c0.1-0.4,0.3-0.7,0.6-0.9c0.3-0.3,0.6-0.5,0.9-0.6c0.4-0.1,0.8-0.2,1.2-0.2s0.8,0.1,1.2,0.2
		c0.4,0.1,0.7,0.3,0.9,0.6c0.3,0.3,0.5,0.6,0.6,0.9c0.1,0.4,0.2,0.8,0.2,1.2c0,0.5-0.1,0.9-0.2,1.2c-0.1,0.4-0.3,0.7-0.6,0.9
		c-0.3,0.3-0.6,0.5-0.9,0.6c-0.4,0.1-0.8,0.2-1.2,0.2s-0.8-0.1-1.2-0.2c-0.4-0.1-0.7-0.3-0.9-0.6c-0.3-0.3-0.5-0.6-0.6-0.9
		c-0.1-0.4-0.2-0.8-0.2-1.2S162.1,48.8,162.2,48.4 M163.6,50.3c0,0.2,0.1,0.4,0.2,0.6s0.2,0.3,0.4,0.4c0.2,0.1,0.4,0.2,0.7,0.2
		s0.5-0.1,0.7-0.2c0.2-0.1,0.3-0.2,0.4-0.4c0.1-0.2,0.2-0.4,0.2-0.6s0.1-0.4,0.1-0.7c0-0.2,0-0.4-0.1-0.7c0-0.2-0.1-0.4-0.2-0.6
		c-0.1-0.2-0.2-0.3-0.4-0.4c-0.2-0.1-0.4-0.2-0.7-0.2s-0.5,0.1-0.7,0.2c-0.2,0.1-0.3,0.2-0.4,0.4c-0.1,0.2-0.2,0.4-0.2,0.6
		s-0.1,0.4-0.1,0.7C163.5,49.9,163.6,50.1,163.6,50.3"/>
	<path class="st2" d="M170,46.8v0.8l0,0c0.2-0.3,0.4-0.5,0.7-0.7s0.6-0.2,1-0.2s0.7,0.1,1,0.2c0.3,0.1,0.5,0.4,0.7,0.7
		c0.2-0.2,0.4-0.5,0.7-0.7s0.6-0.3,1-0.3c0.3,0,0.6,0,0.8,0.1c0.3,0.1,0.5,0.2,0.7,0.3c0.2,0.2,0.3,0.4,0.4,0.6
		c0.1,0.3,0.2,0.6,0.2,0.9v3.8h-1.5v-3.2c0-0.2,0-0.4,0-0.5c0-0.2-0.1-0.3-0.1-0.4c-0.1-0.1-0.2-0.2-0.3-0.3s-0.3-0.1-0.5-0.1
		s-0.4,0-0.5,0.1s-0.2,0.2-0.3,0.3s-0.1,0.3-0.2,0.5c0,0.2,0,0.3,0,0.5v3.1h-1.5v-3.2c0-0.2,0-0.3,0-0.5s0-0.3-0.1-0.5
		c-0.1-0.1-0.1-0.2-0.3-0.3c-0.1-0.1-0.3-0.1-0.6-0.1c-0.1,0-0.2,0-0.3,0s-0.2,0.1-0.3,0.2c-0.1,0.1-0.2,0.2-0.3,0.4
		s-0.1,0.4-0.1,0.7v3.3h-1.5v-5.6h1.2L170,46.8L170,46.8z"/>
	<path class="st2" d="M179.5,46.8v0.7l0,0c0.2-0.3,0.4-0.5,0.7-0.7c0.3-0.1,0.6-0.2,1-0.2s0.8,0.1,1.1,0.3s0.6,0.4,0.8,0.7
		s0.4,0.6,0.5,1s0.2,0.7,0.2,1.1c0,0.4-0.1,0.7-0.2,1.1c-0.1,0.3-0.3,0.7-0.5,0.9c-0.2,0.3-0.5,0.5-0.8,0.6
		c-0.3,0.2-0.7,0.2-1.1,0.2c-0.3,0-0.7-0.1-1-0.2c-0.3-0.1-0.5-0.3-0.7-0.6l0,0v4H178v-8.9C178,46.8,179.5,46.8,179.5,46.8z
		 M181.5,51.3c0.2-0.1,0.3-0.2,0.4-0.4c0.1-0.2,0.2-0.4,0.2-0.6s0.1-0.4,0.1-0.7c0-0.2,0-0.4-0.1-0.7c0-0.2-0.1-0.4-0.2-0.6
		c-0.1-0.2-0.2-0.3-0.4-0.4c-0.2-0.1-0.4-0.2-0.6-0.2c-0.3,0-0.5,0.1-0.6,0.2c-0.2,0.1-0.3,0.2-0.4,0.4c-0.1,0.2-0.2,0.4-0.2,0.6
		s-0.1,0.4-0.1,0.7c0,0.2,0,0.4,0.1,0.7c0,0.2,0.1,0.4,0.2,0.6c0.1,0.2,0.2,0.3,0.4,0.4c0.2,0.1,0.4,0.2,0.6,0.2
		C181.1,51.4,181.3,51.4,181.5,51.3"/>
	<rect x="184.3" y="43.7" class="st2" width="1.5" height="8.7"/>
	<path class="st2" d="M188.5,51.1c0.2,0.2,0.6,0.3,1,0.3c0.3,0,0.6-0.1,0.8-0.2c0.2-0.2,0.4-0.3,0.4-0.5h1.4c-0.2,0.7-0.6,1.2-1,1.4
		c-0.4,0.3-1,0.4-1.6,0.4c-0.4,0-0.8-0.1-1.2-0.2c-0.4-0.1-0.7-0.3-0.9-0.6s-0.4-0.6-0.6-0.9c-0.1-0.4-0.2-0.8-0.2-1.2
		s0.1-0.8,0.2-1.2c0.1-0.4,0.3-0.7,0.6-0.9c0.3-0.3,0.6-0.5,0.9-0.6c0.3-0.2,0.7-0.2,1.2-0.2s0.9,0.1,1.3,0.3s0.6,0.4,0.9,0.7
		c0.2,0.3,0.4,0.7,0.5,1.1c0.1,0.4,0.1,0.8,0.1,1.3h-4.1C188.1,50.5,188.3,50.9,188.5,51.1 M190.3,48.1c-0.2-0.2-0.5-0.3-0.8-0.3
		c-0.2,0-0.5,0-0.6,0.1c-0.2,0.1-0.3,0.2-0.4,0.3c-0.1,0.1-0.2,0.3-0.2,0.4c0,0.1-0.1,0.3-0.1,0.4h2.5
		C190.6,48.6,190.4,48.3,190.3,48.1"/>
	<path class="st2" d="M196,46.6v1.2h-1.1v2.8c0,0.3,0,0.4,0.1,0.5s0.3,0.1,0.5,0.1c0.1,0,0.2,0,0.3,0s0.2,0,0.2,0v1.2
		c-0.1,0-0.3,0-0.4,0c-0.2,0-0.3,0-0.5,0s-0.5,0-0.7,0s-0.4-0.1-0.6-0.2c-0.2-0.1-0.3-0.2-0.4-0.4c0-0.2,0-0.4,0-0.7v-3.3h-1v-1.2h1
		V45h1.5v1.6H196z"/>
	<path class="st3" d="M227.4,51.7c-0.2,0.3-0.4,0.5-0.7,0.7c-0.3,0.1-0.6,0.2-1,0.2s-0.8-0.1-1.1-0.2c-0.3-0.2-0.6-0.4-0.8-0.7
		s-0.4-0.6-0.5-1s-0.2-0.7-0.2-1.1c0-0.4,0.1-0.7,0.2-1.1c0.1-0.4,0.3-0.7,0.5-0.9c0.2-0.3,0.5-0.5,0.8-0.6c0.3-0.2,0.7-0.2,1.1-0.2
		c0.3,0,0.7,0.1,1,0.2c0.3,0.1,0.5,0.4,0.7,0.6l0,0v-3.9h1.5v8.7h-1.5V51.7L227.4,51.7z M227.4,48.9c0-0.2-0.1-0.4-0.2-0.6
		c-0.1-0.2-0.2-0.3-0.4-0.4c-0.2-0.1-0.4-0.2-0.6-0.2c-0.3,0-0.5,0.1-0.6,0.2c-0.2,0.1-0.3,0.2-0.4,0.4c-0.1,0.2-0.2,0.4-0.2,0.6
		s-0.1,0.4-0.1,0.7c0,0.2,0,0.4,0.1,0.7c0.1,0.2,0.1,0.4,0.2,0.6c0.1,0.2,0.3,0.3,0.4,0.4c0.2,0.1,0.4,0.2,0.6,0.2
		c0.3,0,0.5-0.1,0.6-0.2c0.2-0.1,0.3-0.2,0.4-0.4c0.1-0.2,0.2-0.4,0.2-0.6s0.1-0.4,0.1-0.7C227.4,49.4,227.4,49.2,227.4,48.9"/>
	<path class="st4" d="M185,55h-0.4v0.6h-0.2v-1.7h0.6c0.4,0,0.6,0.2,0.6,0.5l0,0C185.6,54.8,185.3,55,185,55 M185.5,54.5
		c0-0.3-0.2-0.4-0.5-0.4h-0.5v0.8h0.5C185.3,54.9,185.5,54.7,185.5,54.5L185.5,54.5z"/>
	<path class="st4" d="M187.3,55.6c-0.5,0-0.8-0.4-0.8-0.9l0,0c0-0.5,0.3-0.9,0.8-0.9s0.8,0.4,0.8,0.9l0,0
		C188.1,55.2,187.8,55.6,187.3,55.6 M188,54.8c0-0.4-0.3-0.7-0.7-0.7s-0.7,0.3-0.7,0.7l0,0c0,0.4,0.3,0.7,0.7,0.7S188,55.2,188,54.8
		L188,54.8z"/>
	<polygon class="st4" points="190.7,55.6 190.6,55.6 190.1,54.2 189.6,55.6 189.5,55.6 188.9,54 189,54 189.5,55.4 190,54 190.1,54 
		190.6,55.4 191.1,54 191.3,54 	"/>
	<polygon class="st4" points="192.2,55.6 192.2,54 193.3,54 193.3,54.1 192.3,54.1 192.3,54.7 193.2,54.7 193.2,54.8 192.3,54.8 
		192.3,55.5 193.4,55.5 193.4,55.6 	"/>
	<path class="st4" d="M195.5,55.6l-0.5-0.7h-0.6v0.7h-0.1v-1.7h0.7c0.4,0,0.6,0.2,0.6,0.5l0,0c0,0.3-0.2,0.4-0.5,0.5L195.5,55.6
		L195.5,55.6z M195.5,54.4c0-0.2-0.2-0.4-0.5-0.4h-0.6v0.7h0.6C195.2,54.8,195.5,54.7,195.5,54.4L195.5,54.4z"/>
	<polygon class="st4" points="196.5,55.6 196.5,54 197.7,54 197.7,54.1 196.7,54.1 196.7,54.7 197.6,54.7 197.6,54.8 196.7,54.8 
		196.7,55.5 197.7,55.5 197.7,55.6 	"/>
	<path class="st4" d="M199.2,55.6h-0.6v-1.7h0.6c0.5,0,0.9,0.4,0.9,0.8l0,0C200.1,55.3,199.7,55.6,199.2,55.6 M200,54.8
		c0-0.4-0.3-0.7-0.8-0.7h-0.4v1.4h0.4C199.7,55.5,200,55.2,200,54.8L200,54.8z"/>
	<path class="st4" d="M203,55.6h-0.7v-1.7h0.7c0.3,0,0.5,0.2,0.5,0.4l0,0c0,0.2-0.1,0.3-0.3,0.4c0.2,0.1,0.4,0.2,0.4,0.4l0,0
		C203.6,55.4,203.4,55.6,203,55.6 M203.4,54.4c0-0.2-0.1-0.3-0.4-0.3h-0.6v0.6h0.5C203.2,54.7,203.4,54.6,203.4,54.4L203.4,54.4z
		 M203.5,55.2c0-0.2-0.2-0.3-0.5-0.3h-0.6v0.7h0.6C203.3,55.5,203.5,55.4,203.5,55.2L203.5,55.2z"/>
	<polygon class="st4" points="205.1,55 205.1,55.6 205,55.6 205,55 204.3,54 204.5,54 205.1,54.9 205.7,54 205.8,54 	"/>
	<path class="st4" d="M209.3,55.6l-0.2-0.5h-1l-0.2,0.5h-0.1l0.8-1.7h0.1l0.8,1.7H209.3z M208.6,54.1l-0.4,1h0.9L208.6,54.1z"/>
	<polygon class="st4" points="210.8,55.6 210.7,55.6 210,54 210.1,54 210.8,55.5 211.4,54 211.6,54 	"/>
	<path class="st4" d="M213.6,55.6l-0.2-0.4h-1l-0.2,0.5h-0.1l0.8-1.7h0.1l0.8,1.7L213.6,55.6L213.6,55.6z M212.9,54.1l-0.4,1h0.9
		L212.9,54.1z"/>
	<polygon class="st4" points="215,54.1 215,55.6 214.9,55.6 214.9,54.1 214.3,54.1 214.3,54 215.6,54 215.6,54.1 	"/>
	<path class="st4" d="M217.6,55.6l-0.2-0.4h-1l-0.2,0.5h-0.1l0.8-1.7h0.1l0.8,1.7L217.6,55.6L217.6,55.6z M216.9,54.1l-0.4,1h0.9
		L216.9,54.1z"/>
	<path class="st4" d="M219.9,55.6l-0.5-0.7h-0.5v0.7h-0.1v-1.7h0.6c0.4,0,0.6,0.2,0.6,0.5l0,0c0,0.3-0.2,0.4-0.5,0.5l0.5,0.7H219.9z
		 M219.8,54.4c0-0.2-0.2-0.4-0.5-0.4h-0.6v0.7h0.7C219.6,54.8,219.8,54.7,219.8,54.4L219.8,54.4z"/>
	<path class="st4" d="M222.3,55.6l-0.2-0.5h-1l-0.2,0.5h-0.1l0.8-1.7h0.1l0.8,1.7H222.3z M221.6,54.1l-0.4,1h0.9L221.6,54.1z"/>
	<path class="st2" d="M198.5,51c0.2,0.2,0.6,0.3,1,0.3c0.3,0,0.6-0.1,0.8-0.2c0.2-0.2,0.4-0.3,0.4-0.5h1.4c-0.2,0.7-0.6,1.2-1,1.4
		c-0.4,0.3-1,0.4-1.6,0.4c-0.4,0-0.8-0.1-1.2-0.2c-0.4-0.1-0.7-0.3-0.9-0.6s-0.4-0.6-0.6-0.9c-0.1-0.4-0.2-0.8-0.2-1.2
		s0.1-0.8,0.2-1.2c0.1-0.4,0.3-0.7,0.6-0.9c0.3-0.3,0.6-0.5,0.9-0.6c0.3-0.2,0.7-0.2,1.2-0.2s0.9,0.1,1.3,0.3
		c0.4,0.2,0.6,0.4,0.9,0.7c0.2,0.3,0.4,0.7,0.5,1.1c0.1,0.4,0.1,0.8,0.1,1.3h-4.1C198.1,50.5,198.3,50.8,198.5,51 M200.2,48.1
		c-0.2-0.2-0.5-0.3-0.8-0.3c-0.2,0-0.5,0-0.6,0.1c-0.2,0.1-0.3,0.2-0.4,0.3c-0.1,0.1-0.2,0.3-0.2,0.4c0,0.1-0.1,0.3-0.1,0.4h2.5
		C200.5,48.6,200.4,48.3,200.2,48.1"/>
	<path class="st3" d="M205.6,47.8c-0.2,0-0.5,0.1-0.6,0.2c-0.2,0.1-0.3,0.3-0.4,0.4c-0.1,0.2-0.2,0.4-0.2,0.6s-0.1,0.4-0.1,0.6
		s0,0.4,0.1,0.6c0,0.2,0.1,0.4,0.2,0.6c0.1,0.2,0.2,0.3,0.4,0.4c0.2,0.1,0.4,0.2,0.6,0.2c0.4,0,0.7-0.1,0.9-0.3s0.3-0.5,0.4-0.8h1.5
		c-0.1,0.7-0.4,1.3-0.9,1.7s-1.1,0.6-1.8,0.6c-0.4,0-0.8-0.1-1.2-0.2c-0.4-0.1-0.7-0.3-0.9-0.6s-0.4-0.6-0.6-0.9
		c-0.1-0.4-0.2-0.7-0.2-1.2c0-0.4,0.1-0.8,0.2-1.2c0.1-0.4,0.3-0.7,0.6-1c0.2-0.3,0.5-0.5,0.9-0.6c0.4-0.2,0.8-0.2,1.2-0.2
		c0.3,0,0.7,0,1,0.1s0.6,0.2,0.8,0.4s0.4,0.4,0.6,0.7c0.2,0.3,0.2,0.6,0.3,0.9h-1.5C206.6,48.1,206.2,47.8,205.6,47.8"/>
	<rect x="208.9" y="43.7" class="st3" width="1.5" height="8.7"/>
	<path class="st3" d="M211.3,48.4c0.1-0.4,0.3-0.7,0.6-0.9c0.3-0.3,0.6-0.5,0.9-0.6c0.4-0.1,0.8-0.2,1.2-0.2s0.8,0.1,1.2,0.2
		c0.4,0.1,0.7,0.3,0.9,0.6c0.3,0.3,0.4,0.6,0.6,0.9c0.1,0.4,0.2,0.8,0.2,1.2c0,0.5-0.1,0.9-0.2,1.2c-0.1,0.4-0.3,0.7-0.6,0.9
		c-0.3,0.3-0.6,0.5-0.9,0.6c-0.4,0.1-0.8,0.2-1.2,0.2s-0.8-0.1-1.2-0.2c-0.4-0.1-0.7-0.3-0.9-0.6c-0.3-0.3-0.5-0.6-0.6-0.9
		c-0.1-0.4-0.2-0.8-0.2-1.2S211.1,48.8,211.3,48.4 M212.7,50.3c0,0.2,0.1,0.4,0.2,0.6c0.1,0.2,0.2,0.3,0.4,0.4
		c0.2,0.1,0.4,0.2,0.7,0.2s0.5-0.1,0.7-0.2c0.2-0.1,0.3-0.2,0.4-0.4c0.1-0.2,0.2-0.4,0.2-0.6s0.1-0.4,0.1-0.7c0-0.2,0-0.4-0.1-0.7
		c0-0.2-0.1-0.4-0.2-0.6c-0.1-0.2-0.2-0.3-0.4-0.4c-0.2-0.1-0.4-0.2-0.7-0.2s-0.5,0.1-0.7,0.2c-0.2,0.1-0.3,0.2-0.4,0.4
		c-0.1,0.2-0.2,0.4-0.2,0.6s-0.1,0.4-0.1,0.7C212.6,49.9,212.6,50.1,212.7,50.3"/>
	<path class="st3" d="M221.1,52.4v-0.7l0,0c-0.2,0.3-0.4,0.6-0.8,0.7c-0.3,0.1-0.6,0.2-1,0.2s-0.8-0.1-1-0.2
		c-0.3-0.1-0.5-0.3-0.6-0.5c-0.2-0.2-0.3-0.4-0.3-0.7c-0.1-0.3-0.1-0.6-0.1-1v-3.5h1.5v3.2c0,0.5,0.1,0.8,0.2,1
		c0.1,0.2,0.4,0.3,0.8,0.3c0.4,0,0.7-0.1,0.9-0.4c0.2-0.3,0.3-0.7,0.3-1.2v-2.9h1.5v5.6L221.1,52.4L221.1,52.4z"/>
</g>
<g>
	<path class="st5" d="M14.3,21.9c-3.5,1.8-5.2,5.3-4,7.7s5.1,3,8.6,1.2s5.4-5.2,4.1-7.7S17.8,20.1,14.3,21.9z M18.2,30.6
		c-3.2,1.6-6.7,1.1-7.8-1.1s0.5-5.4,3.7-7s6.7-1.1,7.8,1.1C23,25.8,21.4,29,18.2,30.6z M15.1,20.3c-4.3,2.2-6.6,6.4-5.1,9.5
		s6.3,3.8,10.7,1.6s6.6-6.5,5.1-9.6C24.2,18.7,19.4,18,15.1,20.3z M19.8,31c-3.9,2-8.3,1.4-9.7-1.4s0.7-6.6,4.6-8.6s8.3-1.4,9.7,1.4
		C25.8,25.2,23.7,29,19.8,31z M16,18.4c-5.3,2.7-8.1,7.9-6.2,11.6s7.8,4.6,13.1,1.9S31,24,29.1,20.3C27.2,16.5,21.4,15.7,16,18.4z
		 M21.7,31.6c-4.8,2.5-10,1.7-11.7-1.7s0.7-8.1,5.5-10.5s10.1-1.8,11.8,1.6S26.5,29.1,21.7,31.6z M19.2,12.7
		c-8.1,4.1-12.5,12-9.5,17.8s12,7,20,2.9S42,21.3,39.1,15.6C36.2,9.8,27.3,8.6,19.2,12.7z M27.7,32.9c-7.3,3.7-15.3,2.7-18-2.5
		s1.2-12.4,8.5-16.1s15.4-2.5,18.1,2.7C38.9,22.2,35,29.2,27.7,32.9z M17.1,16c-6.5,3.3-9.7,9.5-7.3,14.1s9.3,5.9,15.9,2.6
		c6.5-3.3,10.1-9.8,7.7-14.5C31.1,13.6,23.7,12.7,17.1,16z M24.2,32.4c-5.9,3-12.2,2-14.4-2.2s0.8-9.9,6.7-12.9s12.5-2,14.6,2.2
		S30.1,29.4,24.2,32.4z M21.3,8.8c-10,5.1-15.4,15-11.8,22s14.7,8.5,24.7,3.4s15.1-14.9,11.6-21.9S31.3,3.8,21.3,8.8z M31.8,34.1
		c-9.1,4.6-18.9,3-22.1-3.3s1.4-15.1,10.4-19.7s19-3.2,22.3,3.2C45.7,20.7,40.8,29.5,31.8,34.1z M40,35c0.5-0.3,1-0.6,1.6-0.8
		C52.8,27.7,58.4,16.3,54.2,8C49.9-0.7,36.3-2.6,24.1,3.6S5.1,22.1,9.5,30.8c2.5,4.8,7.7,7.6,14.1,8C28.6,39,34.4,37.8,40,35z
		 M9.6,30.7c-4-7.9,2-18.5,13.1-24.1s23.1-4.1,27.1,3.8c3.9,7.7-1.1,18.1-11.7,23.8l-0.8,0.4c-4.6,2.3-9,3.5-12.9,3.6
		C17.5,38.4,12.1,35.7,9.6,30.7z"/>
	<path class="st6" d="M10.6,23.2c-1.8,3-1.6,5.9,1.1,7.5c2.6,1.6,6.6,0.7,8.4-2.2c1.8-3,1.4-6.1-1.2-7.8S12.4,20.3,10.6,23.2z
		 M61,51.6c-0.4,2.3,0.3,3.9,4.6,3.9c3.7,0,5.7-1.2,6.1-2.7c0.3-1.1,0-2-3.8-2.8l-6.3-1.1c-2.7-0.6-8.6-2-7-7.1
		c1.7-5.5,9-7.9,18.2-7.9c9,0.1,12.4,2.5,10.9,7.9H74c0.1-0.7,0.1-2-0.6-2.7c-0.8-0.7-2.5-0.9-2.9-0.9c-2.8,0-4.9,1-5.4,2.6
		c-0.5,1.7,0.5,2.3,3.4,2.9L75,45c6,1.2,8.2,3.3,7.3,6.7c-1.4,5-7.8,8.6-18.7,8.6c-4.5,0-8.6-0.7-11.1-3.1c-1.8-1.7-1.4-4.5-1.2-5.7
		L61,51.6L61,51.6z M39.9,34.1c-5.1,0-18.3,0.9-22.3,13c-1.3,4-0.9,7.3,1.6,9.9c2.7,2.6,6.9,3.2,12,3.2c4.8,0,9-0.6,12.2-2.1
		c4.6-2.1,5.7-4.6,6.5-6.5h-10c-2.1,3.7-6.2,3.5-7.3,3.5c-0.2,0-3.8,0.4-5-2.4c-0.9-2.2,0-5.5,0.1-5.9c1.5-4.5,5-7.8,10.3-7.8
		c4.4,0,4.5,2.7,4.4,3.6h9.9C54.2,35.9,47.1,34.1,39.9,34.1z M8.9,34.3h9.9l-7.4,25.3H1.3L8.9,34.3z"/>
</g>
<g>
	<path class="st0" d="M104.2,49.4v-4.5h6.4v-6.4h4.5v6.4h6.5v4.5h-6.5v6.4h-4.5v-6.4H104.2z"/>
</g>
</svg>
