<?xml version="1.0" encoding="utf-8"?>
<!-- Generator: Adobe Illustrator 22.1.0, SVG Export Plug-In . SVG Version: 6.00 Build 0)  -->
<svg version="1.1" id="Layer_1" xmlns="http://www.w3.org/2000/svg" xmlns:xlink="http://www.w3.org/1999/xlink" x="0px" y="0px"
	 viewBox="0 0 174.2 108.7" style="enable-background:new 0 0 174.2 108.7;" xml:space="preserve">
<style type="text/css">
	.st0{fill:#2AB4C7;}
	.st1{fill:#F15C24;}
	.st2{font-family:'Oswald-Regular';}
	.st3{font-size:13.5471px;}
	.st4{fill:#FFFFFF;}
	.st5{opacity:0.34;}
	.st6{clip-path:url(#SVGID_2_);fill:#FFFFFF;}
</style>
<path class="st0" d="M78.1,92.3c0.8,0,1.5-0.7,1.5-1.5c0-0.8-0.7-1.5-1.5-1.5c-0.8,0-1.5,0.7-1.5,1.5C76.6,91.7,77.3,92.3,78.1,92.3
	"/>
<path class="st0" d="M80.1,92.8l-3.8,0c-1.4,0-1.9,1.2-1.9,1.6v0.1v0.2v5.3c0,0.3,0.3,0.6,0.6,0.6c0.3,0,0.6-0.3,0.6-0.6v-4.6h0.5
	v4.4c0,0.1,0,0.1,0,0.2v7.9c0,0.5,0.4,0.9,0.9,0.9c0.5,0,0.9-0.4,0.9-0.9v-6.9h0.4v6.9c0,0.5,0.4,0.9,0.9,0.9c0.5,0,0.9-0.4,0.9-0.9
	v-8v-0.1v-4.3h0.5v4.6c0,0.3,0.3,0.6,0.7,0.6c0.4,0,0.7-0.3,0.7-0.6v-5.3v-0.2v-0.1C81.9,93.8,81.3,92.8,80.1,92.8"/>
<path class="st0" d="M87.4,92.3c0.8,0,1.5-0.7,1.5-1.5c0-0.8-0.7-1.5-1.5-1.5c-0.8,0-1.5,0.7-1.5,1.5C85.9,91.7,86.5,92.3,87.4,92.3
	"/>
<path class="st0" d="M89.3,92.8l-3.8,0c-1.4,0-1.9,1.2-1.9,1.6v0.1v0.2v5.3c0,0.3,0.3,0.6,0.6,0.6c0.3,0,0.6-0.3,0.6-0.6v-4.6h0.5
	v4.4c0,0.1,0,0.1,0,0.2v7.9c0,0.5,0.4,0.9,0.9,0.9c0.5,0,0.9-0.4,0.9-0.9v-6.9h0.4v6.9c0,0.5,0.4,0.9,0.9,0.9c0.5,0,0.9-0.4,0.9-0.9
	v-8v-0.1v-4.3h0.5v4.6c0,0.3,0.3,0.6,0.7,0.6c0.4,0,0.7-0.3,0.7-0.6v-5.3v-0.2v-0.1C91.1,93.8,90.5,92.8,89.3,92.8"/>
<path class="st0" d="M96.6,92.3c0.8,0,1.5-0.7,1.5-1.5c0-0.8-0.7-1.5-1.5-1.5c-0.8,0-1.5,0.7-1.5,1.5C95.1,91.7,95.8,92.3,96.6,92.3
	"/>
<path class="st0" d="M98.5,92.8l-3.8,0c-1.4,0-1.9,1.2-1.9,1.6v0.1v0.2v5.3c0,0.3,0.3,0.6,0.6,0.6c0.3,0,0.6-0.3,0.6-0.6v-4.6h0.5
	v4.4c0,0.1,0,0.1,0,0.2v7.9c0,0.5,0.4,0.9,0.9,0.9c0.5,0,0.9-0.4,0.9-0.9v-6.9h0.4v6.9c0,0.5,0.4,0.9,0.9,0.9c0.5,0,0.9-0.4,0.9-0.9
	v-8v-0.1v-4.3H99v4.6c0,0.3,0.3,0.6,0.7,0.6c0.4,0,0.7-0.3,0.7-0.6v-5.3v-0.2v-0.1C100.4,93.8,99.7,92.8,98.5,92.8"/>
<path class="st0" d="M105.8,92.3c0.8,0,1.5-0.7,1.5-1.5c0-0.8-0.7-1.5-1.5-1.5c-0.8,0-1.5,0.7-1.5,1.5
	C104.3,91.7,105,92.3,105.8,92.3"/>
<path class="st0" d="M107.8,92.8l-3.8,0c-1.4,0-1.9,1.2-1.9,1.6v0.1v0.2v5.3c0,0.3,0.3,0.6,0.6,0.6c0.3,0,0.6-0.3,0.6-0.6v-4.6h0.5
	v4.4c0,0.1,0,0.1,0,0.2v7.9c0,0.5,0.4,0.9,0.9,0.9c0.5,0,0.9-0.4,0.9-0.9v-6.9h0.4v6.9c0,0.5,0.4,0.9,0.9,0.9c0.5,0,0.9-0.4,0.9-0.9
	v-8v-0.1v-4.3h0.5v4.6c0,0.3,0.3,0.6,0.7,0.6c0.4,0,0.7-0.3,0.7-0.6v-5.3v-0.2v-0.1C109.6,93.8,109,92.8,107.8,92.8"/>
<path class="st0" d="M115,92.3c0.8,0,1.5-0.7,1.5-1.5c0-0.8-0.7-1.5-1.5-1.5c-0.8,0-1.5,0.7-1.5,1.5C113.5,91.7,114.2,92.3,115,92.3
	"/>
<path class="st0" d="M117,92.8l-3.8,0c-1.4,0-1.9,1.2-1.9,1.6v0.1v0.2v5.3c0,0.3,0.3,0.6,0.6,0.6c0.3,0,0.6-0.3,0.6-0.6v-4.6h0.5
	v4.4c0,0.1,0,0.1,0,0.2v7.9c0,0.5,0.4,0.9,0.9,0.9c0.5,0,0.9-0.4,0.9-0.9v-6.9h0.4v6.9c0,0.5,0.4,0.9,0.9,0.9c0.5,0,0.9-0.4,0.9-0.9
	v-8v-0.1v-4.3h0.5v4.6c0,0.3,0.3,0.6,0.7,0.6c0.4,0,0.7-0.3,0.7-0.6v-5.3v-0.2v-0.1C118.8,93.8,118.2,92.8,117,92.8"/>
<path class="st0" d="M124.3,92.3c0.8,0,1.5-0.7,1.5-1.5c0-0.8-0.7-1.5-1.5-1.5c-0.8,0-1.5,0.7-1.5,1.5
	C122.8,91.7,123.4,92.3,124.3,92.3"/>
<path class="st0" d="M126.2,92.8l-3.8,0c-1.4,0-1.9,1.2-1.9,1.6v0.1v0.2v5.3c0,0.3,0.3,0.6,0.6,0.6c0.3,0,0.6-0.3,0.6-0.6v-4.6h0.5
	v4.4c0,0.1,0,0.1,0,0.2v7.9c0,0.5,0.4,0.9,0.9,0.9c0.5,0,0.9-0.4,0.9-0.9v-6.9h0.4v6.9c0,0.5,0.4,0.9,0.9,0.9c0.5,0,0.9-0.4,0.9-0.9
	v-8v-0.1v-4.3h0.5v4.6c0,0.3,0.3,0.6,0.7,0.6c0.4,0,0.7-0.3,0.7-0.6v-5.3v-0.2v-0.1C128,93.8,127.4,92.8,126.2,92.8"/>
<path class="st0" d="M133.5,92.3c0.8,0,1.5-0.7,1.5-1.5c0-0.8-0.7-1.5-1.5-1.5c-0.8,0-1.5,0.7-1.5,1.5
	C132,91.7,132.7,92.3,133.5,92.3"/>
<path class="st0" d="M135.4,92.8l-3.8,0c-1.4,0-1.9,1.2-1.9,1.6v0.1v0.2v5.3c0,0.3,0.3,0.6,0.6,0.6c0.3,0,0.6-0.3,0.6-0.6v-4.6h0.5
	v4.4c0,0.1,0,0.1,0,0.2v7.9c0,0.5,0.4,0.9,0.9,0.9c0.5,0,0.9-0.4,0.9-0.9v-6.9h0.4v6.9c0,0.5,0.4,0.9,0.9,0.9c0.5,0,0.9-0.4,0.9-0.9
	v-8v-0.1v-4.3h0.5v4.6c0,0.3,0.3,0.6,0.7,0.6c0.4,0,0.7-0.3,0.7-0.6v-5.3v-0.2v-0.1C137.3,93.8,136.6,92.8,135.4,92.8"/>
<path class="st0" d="M142.7,92.3c0.8,0,1.5-0.7,1.5-1.5c0-0.8-0.7-1.5-1.5-1.5c-0.8,0-1.5,0.7-1.5,1.5
	C141.2,91.7,141.9,92.3,142.7,92.3"/>
<path class="st0" d="M144.7,92.8l-3.8,0c-1.4,0-1.9,1.2-1.9,1.6v0.1v0.2v5.3c0,0.3,0.3,0.6,0.6,0.6c0.3,0,0.6-0.3,0.6-0.6v-4.6h0.5
	v4.4c0,0.1,0,0.1,0,0.2v7.9c0,0.5,0.4,0.9,0.9,0.9c0.5,0,0.9-0.4,0.9-0.9v-6.9h0.4v6.9c0,0.5,0.4,0.9,0.9,0.9c0.5,0,0.9-0.4,0.9-0.9
	v-8v-0.1v-4.3h0.5v4.6c0,0.3,0.3,0.6,0.7,0.6c0.4,0,0.7-0.3,0.7-0.6v-5.3v-0.2v-0.1C146.5,93.8,145.9,92.8,144.7,92.8"/>
<path class="st0" d="M151.9,92.3c0.8,0,1.5-0.7,1.5-1.5c0-0.8-0.7-1.5-1.5-1.5c-0.8,0-1.5,0.7-1.5,1.5
	C150.4,91.7,151.1,92.3,151.9,92.3"/>
<path class="st0" d="M153.9,92.8l-3.8,0c-1.4,0-1.9,1.2-1.9,1.6v0.1v0.2v5.3c0,0.3,0.3,0.6,0.6,0.6c0.3,0,0.6-0.3,0.6-0.6v-4.6h0.5
	v4.4c0,0.1,0,0.1,0,0.2v7.9c0,0.5,0.4,0.9,0.9,0.9c0.5,0,0.9-0.4,0.9-0.9v-6.9h0.4v6.9c0,0.5,0.4,0.9,0.9,0.9c0.5,0,0.9-0.4,0.9-0.9
	v-8v-0.1v-4.3h0.5v4.6c0,0.3,0.3,0.6,0.7,0.6c0.4,0,0.7-0.3,0.7-0.6v-5.3v-0.2v-0.1C155.7,93.8,155.1,92.8,153.9,92.8"/>
<path class="st0" d="M161.2,92.3c0.8,0,1.5-0.7,1.5-1.5c0-0.8-0.7-1.5-1.5-1.5c-0.8,0-1.5,0.7-1.5,1.5
	C159.7,91.7,160.3,92.3,161.2,92.3"/>
<path class="st0" d="M163.1,92.8l-3.8,0c-1.4,0-1.9,1.2-1.9,1.6v0.1v0.2v5.3c0,0.3,0.3,0.6,0.6,0.6c0.3,0,0.6-0.3,0.6-0.6v-4.6h0.5
	v4.4c0,0.1,0,0.1,0,0.2v7.9c0,0.5,0.4,0.9,0.9,0.9c0.5,0,0.9-0.4,0.9-0.9v-6.9h0.4v6.9c0,0.5,0.4,0.9,0.9,0.9c0.5,0,0.9-0.4,0.9-0.9
	v-8v-0.1v-4.3h0.5v4.6c0,0.3,0.3,0.6,0.7,0.6c0.4,0,0.7-0.3,0.7-0.6v-5.3v-0.2v-0.1C164.9,93.8,164.3,92.8,163.1,92.8"/>
<path class="st0" d="M170.4,92.3c0.8,0,1.5-0.7,1.5-1.5c0-0.8-0.7-1.5-1.5-1.5c-0.8,0-1.5,0.7-1.5,1.5
	C168.9,91.7,169.6,92.3,170.4,92.3"/>
<path class="st0" d="M172.4,92.8l-3.8,0c-1.4,0-1.9,1.2-1.9,1.6v0.1v0.2v5.3c0,0.3,0.3,0.6,0.6,0.6s0.6-0.3,0.6-0.6v-4.6h0.5v4.4
	c0,0.1,0,0.1,0,0.2v7.9c0,0.5,0.4,0.9,0.9,0.9c0.5,0,0.9-0.4,0.9-0.9v-6.9h0.4v6.9c0,0.5,0.4,0.9,0.9,0.9c0.5,0,0.9-0.4,0.9-0.9v-8
	v-0.1v-4.3h0.5v4.6c0,0.3,0.3,0.6,0.7,0.6c0.4,0,0.7-0.3,0.7-0.6v-5.3v-0.2v-0.1C174.2,93.8,173.5,92.8,172.4,92.8"/>
<path class="st0" d="M4.7,92.3c0.8,0,1.5-0.7,1.5-1.5c0-0.8-0.7-1.5-1.5-1.5c-0.8,0-1.5,0.7-1.5,1.5C3.2,91.7,3.9,92.3,4.7,92.3"/>
<path class="st0" d="M6.7,92.8l-3.8,0C1.5,92.8,1,94,1,94.4v0.1v0.2v5.3c0,0.3,0.3,0.6,0.6,0.6c0.3,0,0.6-0.3,0.6-0.6v-4.6h0.5v4.4
	c0,0.1,0,0.1,0,0.2v7.9c0,0.5,0.4,0.9,0.9,0.9c0.5,0,0.9-0.4,0.9-0.9v-6.9h0.4v6.9c0,0.5,0.4,0.9,0.9,0.9c0.5,0,0.9-0.4,0.9-0.9v-8
	v-0.1v-4.3h0.5v4.6c0,0.3,0.3,0.6,0.7,0.6c0.4,0,0.7-0.3,0.7-0.6v-5.3v-0.2v-0.1C8.5,93.8,7.9,92.8,6.7,92.8"/>
<path class="st0" d="M13.9,92.3c0.8,0,1.5-0.7,1.5-1.5c0-0.8-0.7-1.5-1.5-1.5c-0.8,0-1.5,0.7-1.5,1.5C12.4,91.7,13.1,92.3,13.9,92.3
	"/>
<path class="st0" d="M15.9,92.8l-3.8,0c-1.4,0-1.9,1.2-1.9,1.6v0.1v0.2v5.3c0,0.3,0.3,0.6,0.6,0.6c0.3,0,0.6-0.3,0.6-0.6v-4.6H12
	v4.4c0,0.1,0,0.1,0,0.2v7.9c0,0.5,0.4,0.9,0.9,0.9c0.5,0,0.9-0.4,0.9-0.9v-6.9h0.4v6.9c0,0.5,0.4,0.9,0.9,0.9c0.5,0,0.9-0.4,0.9-0.9
	v-8v-0.1v-4.3h0.5v4.6c0,0.3,0.3,0.6,0.7,0.6c0.4,0,0.7-0.3,0.7-0.6v-5.3v-0.2v-0.1C17.7,93.8,17.1,92.8,15.9,92.8"/>
<path class="st0" d="M23.2,92.3c0.8,0,1.5-0.7,1.5-1.5c0-0.8-0.7-1.5-1.5-1.5c-0.8,0-1.5,0.7-1.5,1.5C21.7,91.7,22.3,92.3,23.2,92.3
	"/>
<path class="st0" d="M25.1,92.8l-3.8,0c-1.4,0-1.9,1.2-1.9,1.6v0.1v0.2v5.3c0,0.3,0.3,0.6,0.6,0.6c0.3,0,0.6-0.3,0.6-0.6v-4.6h0.5
	v4.4c0,0.1,0,0.1,0,0.2v7.9c0,0.5,0.4,0.9,0.9,0.9c0.5,0,0.9-0.4,0.9-0.9v-6.9h0.4v6.9c0,0.5,0.4,0.9,0.9,0.9c0.5,0,0.9-0.4,0.9-0.9
	v-8v-0.1v-4.3h0.5v4.6c0,0.3,0.3,0.6,0.7,0.6c0.4,0,0.7-0.3,0.7-0.6v-5.3v-0.2v-0.1C26.9,93.8,26.3,92.8,25.1,92.8"/>
<path class="st0" d="M32.4,92.3c0.8,0,1.5-0.7,1.5-1.5c0-0.8-0.7-1.5-1.5-1.5c-0.8,0-1.5,0.7-1.5,1.5C30.9,91.7,31.6,92.3,32.4,92.3
	"/>
<path class="st0" d="M34.4,92.8l-3.8,0c-1.4,0-1.9,1.2-1.9,1.6v0.1v0.2v5.3c0,0.3,0.3,0.6,0.6,0.6c0.3,0,0.6-0.3,0.6-0.6v-4.6h0.5
	v4.4c0,0.1,0,0.1,0,0.2v7.9c0,0.5,0.4,0.9,0.9,0.9s0.9-0.4,0.9-0.9v-6.9h0.4v6.9c0,0.5,0.4,0.9,0.9,0.9c0.5,0,0.9-0.4,0.9-0.9v-8
	v-0.1v-4.3h0.5v4.6c0,0.3,0.3,0.6,0.7,0.6c0.4,0,0.7-0.3,0.7-0.6v-5.3v-0.2v-0.1C36.2,93.8,35.5,92.8,34.4,92.8"/>
<path class="st0" d="M41.6,92.3c0.8,0,1.5-0.7,1.5-1.5c0-0.8-0.7-1.5-1.5-1.5c-0.8,0-1.5,0.7-1.5,1.5C40.1,91.7,40.8,92.3,41.6,92.3
	"/>
<path class="st0" d="M43.6,92.8l-3.8,0c-1.4,0-1.9,1.2-1.9,1.6v0.1v0.2v5.3c0,0.3,0.3,0.6,0.6,0.6c0.3,0,0.6-0.3,0.6-0.6v-4.6h0.5
	v4.4c0,0.1,0,0.1,0,0.2v7.9c0,0.5,0.4,0.9,0.9,0.9s0.9-0.4,0.9-0.9v-6.9h0.4v6.9c0,0.5,0.4,0.9,0.9,0.9c0.5,0,0.9-0.4,0.9-0.9v-8
	v-0.1v-4.3h0.5v4.6c0,0.3,0.3,0.6,0.7,0.6c0.4,0,0.7-0.3,0.7-0.6v-5.3v-0.2v-0.1C45.4,93.8,44.8,92.8,43.6,92.8"/>
<path class="st0" d="M50.9,92.3c0.8,0,1.5-0.7,1.5-1.5c0-0.8-0.7-1.5-1.5-1.5c-0.8,0-1.5,0.7-1.5,1.5C49.3,91.7,50,92.3,50.9,92.3"
	/>
<path class="st0" d="M52.8,92.8l-3.8,0c-1.4,0-1.9,1.2-1.9,1.6v0.1v0.2v5.3c0,0.3,0.3,0.6,0.6,0.6c0.3,0,0.6-0.3,0.6-0.6v-4.6h0.5
	v4.4c0,0.1,0,0.1,0,0.2v7.9c0,0.5,0.4,0.9,0.9,0.9c0.5,0,0.9-0.4,0.9-0.9v-6.9h0.4v6.9c0,0.5,0.4,0.9,0.9,0.9c0.5,0,0.9-0.4,0.9-0.9
	v-8v-0.1v-4.3h0.5v4.6c0,0.3,0.3,0.6,0.7,0.6c0.4,0,0.7-0.3,0.7-0.6v-5.3v-0.2v-0.1C54.6,93.8,54,92.8,52.8,92.8"/>
<path class="st0" d="M60.1,92.3c0.8,0,1.5-0.7,1.5-1.5c0-0.8-0.7-1.5-1.5-1.5c-0.8,0-1.5,0.7-1.5,1.5C58.6,91.7,59.2,92.3,60.1,92.3
	"/>
<path class="st0" d="M62,92.8l-3.8,0c-1.4,0-1.9,1.2-1.9,1.6v0.1v0.2v5.3c0,0.3,0.3,0.6,0.6,0.6c0.3,0,0.6-0.3,0.6-0.6v-4.6h0.5v4.4
	c0,0.1,0,0.1,0,0.2v7.9c0,0.5,0.4,0.9,0.9,0.9c0.5,0,0.9-0.4,0.9-0.9v-6.9h0.4v6.9c0,0.5,0.4,0.9,0.9,0.9c0.5,0,0.9-0.4,0.9-0.9v-8
	v-0.1v-4.3h0.5v4.6c0,0.3,0.3,0.6,0.7,0.6c0.4,0,0.7-0.3,0.7-0.6v-5.3v-0.2v-0.1C63.8,93.8,63.2,92.8,62,92.8"/>
<path class="st0" d="M69.3,92.3c0.8,0,1.5-0.7,1.5-1.5c0-0.8-0.7-1.5-1.5-1.5c-0.8,0-1.5,0.7-1.5,1.5C67.8,91.7,68.5,92.3,69.3,92.3
	"/>
<path class="st0" d="M71.3,92.8l-3.8,0c-1.4,0-1.9,1.2-1.9,1.6v0.1v0.2v5.3c0,0.3,0.3,0.6,0.6,0.6c0.3,0,0.6-0.3,0.6-0.6v-4.6h0.5
	v4.4c0,0.1,0,0.1,0,0.2v7.9c0,0.5,0.4,0.9,0.9,0.9c0.5,0,0.9-0.4,0.9-0.9v-6.9h0.4v6.9c0,0.5,0.4,0.9,0.9,0.9c0.5,0,0.9-0.4,0.9-0.9
	v-8v-0.1v-4.3h0.5v4.6c0,0.3,0.3,0.6,0.7,0.6c0.4,0,0.7-0.3,0.7-0.6v-5.3v-0.2v-0.1C73.1,93.8,72.4,92.8,71.3,92.8"/>
<rect x="0.5" y="86.9" class="st1" width="35.6" height="0.3"/>
<rect x="46.1" y="86.9" class="st1" width="35.6" height="0.3"/>
<polygon class="st0" points="0.8,10.6 9.6,5.3 18.5,0 27.3,5.3 36.1,10.6 36.1,10.6 36.1,70.2 0.8,70.2 0.8,10.6 "/>
<polygon class="st0" points="46.3,10.6 55.1,5.3 64,0 72.8,5.3 81.6,10.6 81.6,10.6 81.6,70.2 46.3,70.2 46.3,10.6 "/>
<polygon class="st0" points="92.3,10.6 101.1,5.3 110,0 118.8,5.3 127.6,10.6 127.6,10.6 127.6,70.2 92.3,70.2 92.3,10.6 "/>
<polygon class="st0" points="137.8,10.6 146.6,5.3 155.5,0 164.3,5.3 173.1,10.6 173.1,10.6 173.1,70.2 137.8,70.2 137.8,10.6 "/>
<rect x="92.2" y="86.6" class="st1" width="35.6" height="0.3"/>
<rect x="137.9" y="86.6" class="st1" width="35.6" height="0.3"/>
<text transform="matrix(1 0 0 1 0 84.8127)" class="st1 st2 st3">100%</text>
<text transform="matrix(1 0 0 1 45.5049 84.8127)" class="st1 st2 st3">100%</text>
<text transform="matrix(1 0 0 1 91.5107 84.8127)" class="st1 st2 st3">100%</text>
<text transform="matrix(1 0 0 1 137.0156 84.8127)" class="st1 st2 st3">100%</text>
<g>
	<path class="st4" d="M25,35.8L5.2,53.8c-0.3-0.9-0.9-3.1-0.1-4.9c0.5-1.3,1.6-2.2,3.2-2.8c6.1-2.2,8.3-3.6,8.4-5.5
		c0.4,0,0.8-0.4,0.8-0.8l0-2.2l-0.3,0l0-1.1l-1.1,0l0,1.1l-0.3,0l0,2.2c0,0.4,0.3,0.7,0.8,0.8c-0.1,1.8-2.3,3.2-8.3,5.3
		c-1.7,0.6-2.8,1.6-3.4,2.9C4,50.8,4.6,53,5,53.9l-1.1,1l8.1,8.9l21.1-19.1L25,35.8z M16.9,36.8l0,0.3l-0.3,0l0-0.3L16.9,36.8z
		 M16.4,36.8l0,0.3l-0.3,0l0-0.3L16.4,36.8z M29.4,43.1l-0.8,0.7l-0.7-0.8l0.8-0.7L29.4,43.1z M23.9,44.2L23,44.9l-0.7-0.8l0.8-0.7
		L23.9,44.2z M23.5,43l0.8-0.7l0.7,0.8l-0.8,0.7L23.5,43z M22.7,45.3L21.8,46l-0.7-0.8l0.8-0.7L22.7,45.3z M21.5,46.3l-0.8,0.7
		l-0.7-0.8l0.8-0.7L21.5,46.3z M20.3,47.4l-0.8,0.7l-0.7-0.8l0.8-0.7L20.3,47.4z M19.1,48.5l-0.8,0.7l-0.7-0.8l0.8-0.7L19.1,48.5z
		 M17.9,49.6l-0.8,0.7l-0.7-0.8l0.8-0.7L17.9,49.6z M16.7,50.7l-0.8,0.7l-0.7-0.8l0.8-0.7L16.7,50.7z M15.5,51.8l-0.8,0.7l-0.7-0.8
		l0.8-0.7L15.5,51.8z M14.3,52.8l-0.8,0.7l-0.7-0.8l0.8-0.7L14.3,52.8z M13.1,53.9l-0.8,0.7l-0.7-0.8l0.8-0.7L13.1,53.9z M11.9,55
		l-0.8,0.7l-0.7-0.8l0.8-0.7L11.9,55z M12.2,55.3l0.7,0.8l-0.8,0.7L11.3,56L12.2,55.3z M12.5,54.9l0.8-0.7l0.7,0.8l-0.8,0.7
		L12.5,54.9z M13.7,53.9l0.8-0.7l0.7,0.8l-0.8,0.7L13.7,53.9z M14.9,52.8l0.8-0.7l0.7,0.8l-0.8,0.7L14.9,52.8z M16.1,51.7l0.8-0.7
		l0.7,0.8l-0.8,0.7L16.1,51.7z M17.3,50.6l0.8-0.7l0.7,0.8l-0.8,0.7L17.3,50.6z M18.5,49.5l0.8-0.7l0.7,0.8l-0.8,0.7L18.5,49.5z
		 M19.7,48.5l0.8-0.7l0.7,0.8l-0.8,0.7L19.7,48.5z M20.9,47.4l0.8-0.7l0.7,0.8l-0.8,0.7L20.9,47.4z M22.1,46.3l0.8-0.7l0.7,0.8
		l-0.8,0.7L22.1,46.3z M23.3,45.2l0.8-0.7l0.7,0.8L24,46L23.3,45.2z M24.5,44.1l0.8-0.7l0.7,0.8L25.2,45L24.5,44.1z M25.7,43
		l0.8-0.7l0.7,0.8l-0.8,0.7L25.7,43z M25.4,42.8l-0.7-0.8l0.8-0.7l0.7,0.8L25.4,42.8z M24.4,41.7l-0.7-0.8l0.8-0.7l0.7,0.8
		L24.4,41.7z M24.1,42l-0.8,0.7l-0.7-0.8l0.8-0.7L24.1,42z M22.9,43.1L22,43.8L21.3,43l0.8-0.7L22.9,43.1z M21.7,44.2l-0.8,0.7
		l-0.7-0.8l0.8-0.7L21.7,44.2z M20.5,45.2L19.7,46l-0.7-0.8l0.8-0.7L20.5,45.2z M19.3,46.3l-0.8,0.7l-0.7-0.8l0.8-0.7L19.3,46.3z
		 M18.1,47.4l-0.8,0.7l-0.7-0.8l0.8-0.7L18.1,47.4z M16.9,48.5l-0.8,0.7l-0.7-0.8l0.8-0.7L16.9,48.5z M15.7,49.6l-0.8,0.7l-0.7-0.8
		l0.8-0.7L15.7,49.6z M14.5,50.7l-0.8,0.7l-0.7-0.8l0.8-0.7L14.5,50.7z M13.3,51.7l-0.8,0.7l-0.7-0.8l0.8-0.7L13.3,51.7z M12.1,52.8
		l-0.8,0.7l-0.7-0.8l0.8-0.7L12.1,52.8z M10.9,53.9l-0.8,0.7l-0.7-0.8l0.8-0.7L10.9,53.9z M9.7,55l-0.8,0.7l-0.7-0.8L9,54.1L9.7,55z
		 M10,55.3l0.7,0.8l-0.8,0.7L9.2,56L10,55.3z M11,56.4l0.7,0.8l-0.8,0.7l-0.7-0.8L11,56.4z M12,57.5l0.7,0.8L11.9,59l-0.7-0.8
		L12,57.5z M12.3,57.1l0.8-0.7l0.7,0.8L13.1,58L12.3,57.1z M13.5,56l0.8-0.7l0.7,0.8l-0.8,0.7L13.5,56z M14.7,55l0.8-0.7l0.7,0.8
		l-0.8,0.7L14.7,55z M15.9,53.9l0.8-0.7l0.7,0.8l-0.8,0.7L15.9,53.9z M17.1,52.8l0.8-0.7l0.7,0.8l-0.8,0.7L17.1,52.8z M18.3,51.7
		l0.8-0.7l0.7,0.8l-0.8,0.7L18.3,51.7z M19.5,50.6l0.8-0.7l0.7,0.8l-0.8,0.7L19.5,50.6z M20.7,49.6l0.8-0.7l0.7,0.8l-0.8,0.7
		L20.7,49.6z M21.9,48.5l0.8-0.7l0.7,0.8l-0.8,0.7L21.9,48.5z M23.1,47.4l0.8-0.7l0.7,0.8l-0.8,0.7L23.1,47.4z M24.3,46.3l0.8-0.7
		l0.7,0.8L25,47.1L24.3,46.3z M25.5,45.2l0.8-0.7l0.7,0.8l-0.8,0.7L25.5,45.2z M26.7,44.2l0.8-0.7l0.7,0.8L27.4,45L26.7,44.2z
		 M28.4,42l-0.8,0.7L26.9,42l0.8-0.7L28.4,42z M27.4,40.9l-0.8,0.7l-0.7-0.8l0.8-0.7L27.4,40.9z M26.5,39.8l-0.8,0.7l-0.7-0.8
		l0.8-0.7L26.5,39.8z M24.7,37.9l0.7,0.8l-0.8,0.7l-0.7-0.8L24.7,37.9z M23.5,39l0.7,0.8l-0.8,0.7l-0.7-0.8L23.5,39z M22.3,40.1
		l0.7,0.8l-0.8,0.7l-0.7-0.8L22.3,40.1z M21.1,41.2l0.7,0.8L21,42.7l-0.7-0.8L21.1,41.2z M19.9,42.2l0.7,0.8l-0.8,0.7L19.1,43
		L19.9,42.2z M18.7,43.3l0.7,0.8l-0.8,0.7l-0.7-0.8L18.7,43.3z M17.5,44.4l0.7,0.8L17.5,46l-0.7-0.8L17.5,44.4z M16.3,45.5l0.7,0.8
		l-0.8,0.7l-0.7-0.8L16.3,45.5z M15.1,46.6l0.7,0.8l-0.8,0.7l-0.7-0.8L15.1,46.6z M14,47.6l0.7,0.8l-0.8,0.7l-0.7-0.8L14,47.6z
		 M12.8,48.7l0.7,0.8l-0.8,0.7l-0.7-0.8L12.8,48.7z M11.6,49.8l0.7,0.8l-0.8,0.7l-0.7-0.8L11.6,49.8z M10.4,50.9l0.7,0.8l-0.8,0.7
		l-0.7-0.8L10.4,50.9z M9.2,52l0.7,0.8l-0.8,0.7l-0.7-0.8L9.2,52z M8,53l0.7,0.8l-0.8,0.7l-0.7-0.8L8,53z M6,54.9l0.8-0.7L7.5,55
		l-0.8,0.7L6,54.9z M7,56l0.8-0.7l0.7,0.8l-0.8,0.7L7,56z M8,57.1l0.8-0.7l0.7,0.8l-0.8,0.7L8,57.1z M9,58.2l0.8-0.7l0.7,0.8L9.7,59
		L9,58.2z M10,59.3l0.8-0.7l0.7,0.8l-0.8,0.7L10,59.3z M11.7,61.2L11,60.4l0.8-0.7l0.7,0.8L11.7,61.2z M12.9,60.1l-0.7-0.8l0.8-0.7
		l0.7,0.8L12.9,60.1z M14.1,59.1l-0.7-0.8l0.8-0.7l0.7,0.8L14.1,59.1z M15.3,58l-0.7-0.8l0.8-0.7l0.7,0.8L15.3,58z M16.5,56.9
		l-0.7-0.8l8-7.2l0.7,0.8L16.5,56.9z M24.8,49.3l-0.7-0.8l0.8-0.7l0.7,0.8L24.8,49.3z M26,48.2l-0.7-0.8l0.8-0.7l0.7,0.8L26,48.2z
		 M27.2,47.2l-0.7-0.8l0.8-0.7l0.7,0.8L27.2,47.2z M28.4,46.1l-0.7-0.8l0.8-0.7l0.7,0.8L28.4,46.1z M28.9,44.2l0.8-0.7l0.7,0.8
		L29.6,45L28.9,44.2z"/>
	<path class="st4" d="M74,57.2v-0.4h-3.3c-0.7,0-1.2,0.6-1.2,1.4c-1.7,0.3-3.9,1-5.9,2.6c-2.6,2.2-6.4,2.2-8.9,1.2
		c-1.4-0.6-2.3-1.6-2.3-2.6c-0.2-2.4,2.1-4.5,3.2-5.4c2.7,2.6,8.3,1.4,12.5-2.8c7.6-7.6,5.4-9.8,2.7-12.5s-4.9-4.9-12.5,2.7
		c-4.1,4.1-5.4,9.6-2.8,12.4c-1.2,0.9-3.4,3.1-3.3,5.6c0.1,1.2,1,2.2,2.5,2.8c1,0.4,2.2,0.7,3.5,0.7c1.9,0,4-0.6,5.7-1.9
		c1.9-1.6,4.1-2.3,5.8-2.6c0.1,0.6,0.6,1.1,1.2,1.1H74v-0.4h1.8v-1.8H74z M65.9,43c3.1-3.1,4.4-4.1,4.6-4.3
		c-0.2,0.2-1.2,1.6-4.3,4.6c2.2,2.2,4.3,3.5,5.1,3.9c-6.4-2.6-9.3-9.2-9.3-9.2C63.4,40,64.7,41.8,65.9,43 M55.1,53
		c-3.4-7.3,6.1-14,6.1-14C56.2,45.5,55.7,49.2,55.1,53 M75.2,58.7h-0.4v-0.4h0.4V58.7z M75.2,57.9h-0.4v-0.4h0.4V57.9z"/>
	<rect x="95.5" y="46.1" class="st4" width="8.9" height="4.4"/>
	<rect x="105.5" y="46.1" class="st4" width="8.9" height="4.4"/>
	<rect x="115.4" y="46.1" class="st4" width="8.9" height="4.4"/>
	<rect x="95.5" y="57" class="st4" width="8.9" height="4.4"/>
	<rect x="105.5" y="57" class="st4" width="8.9" height="4.4"/>
	<rect x="115.4" y="57" class="st4" width="8.9" height="4.4"/>
	<rect x="95.5" y="51.6" class="st4" width="4" height="4.4"/>
	<rect x="120.4" y="51.6" class="st4" width="4" height="4.4"/>
	<rect x="100.5" y="51.6" class="st4" width="8.9" height="4.4"/>
	<rect x="110.5" y="51.6" class="st4" width="8.9" height="4.4"/>
	<path class="st0" d="M103.5,55.2c-0.3,0-0.6,0-1,0c-0.5,0-0.9-0.1-1.3-0.2c0,0,0,0,0,0c-0.6-0.2-1.2-1-1.4-1.6
		c-0.3-0.7,0.1-1.6,0.6-2.1c0.1,0.9,1.2,1.5,1.6,1c0.3-0.4-0.2-1-0.3-1.4c-0.3-1.2,0.4-1.9,1.2-2.6c-0.2,0.6-0.2,1.6,0.2,2.1
		c0.6,0.8,1.3,0.4,1.3-0.5c0.5,0.8,1.3,1.5,1.5,2.6C105.9,53.6,105.2,54.7,103.5,55.2"/>
	<path class="st4" d="M108.9,51.8c-1.3,2.3-2.8,3.2-5.4,3.4c1.7-0.5,2.4-1.6,2.3-2.8c-0.1-1.1-1-1.8-1.5-2.6c0,0.9-0.7,1.3-1.3,0.5
		c-0.4-0.5-0.3-1.5-0.2-2.1c-0.8,0.8-1.4,1.5-1.2,2.6c0.1,0.4,0.6,1,0.3,1.4c-0.4,0.5-1.5-0.1-1.6-1c-0.4,0.5-0.8,1.4-0.5,2.3
		c0.2,0.6,0.7,1.3,1.4,1.5c-3.1-0.8-4.8-4.1-4.2-7.2c0.6-2.9,3.2-4.1,4.5-6.6c0.6,0.5,1.1,1.3,0.8,2.5c-0.2,0.8-1.3,1.1-1.2,2.2
		c0.1,1.3,1.3,0.7,1.9,0c0.4-0.5,0.6-1.8,0.6-2.4c-0.1-1.9-1.5-2.8-0.1-4.6c0,2.2,1.6,2.2,2.7,4c0.7,1.1,1.4,2.5-0.5,5.3
		c-0.3,1,2.4-0.4,2.3-3.2C109.7,46.7,109.8,50.1,108.9,51.8"/>
	<g class="st5">
		<g>
			<defs>
				<rect id="SVGID_1_" x="96.9" y="41.2" width="5.9" height="14"/>
			</defs>
			<clipPath id="SVGID_2_">
				<use xlink:href="#SVGID_1_"  style="overflow:visible;"/>
			</clipPath>
			<path class="st6" d="M102.8,46.1v2.6c0,0.3,0,0.6,0,0.9v5.6c-0.1,0-0.2,0-0.2,0c-0.5,0-0.9-0.1-1.3-0.2c0,0,0,0,0,0
				c-3.1-0.8-4.8-4.1-4.2-7.2c0.6-2.9,3.2-4.1,4.5-6.6c0.6,0.5,1.1,1.3,0.8,2.5c-0.2,0.8-1.3,1.1-1.2,2.2
				C101.2,47,102.2,46.7,102.8,46.1"/>
		</g>
	</g>
	<path class="st4" d="M157.8,44.8h-14.5c-0.9,0-1.6,0.6-1.6,1.5v9.8c0,0.9,0.8,1.7,1.6,1.7h4.1c0,0,2.4,1.1,2.4,2.3v0.3l-1.9,0.4
		v0.6h5.5v-0.6l-1.8-0.4v-0.3c0-1.2,2.5-2.3,2.5-2.3h3.7c0.9,0,1.5-0.8,1.5-1.7v-9.8C159.2,45.4,158.6,44.8,157.8,44.8 M158.2,55.3
		c0,0.8-0.7,1.5-1.5,1.5h-12.5c-0.8,0-1.5-0.7-1.5-1.5v-8c0-0.8,0.7-1.5,1.5-1.5h12.5c0.8,0,1.5,0.7,1.5,1.5V55.3z"/>
	<path class="st4" d="M161.3,61.4h8V42.5h-8V61.4z M161.9,43.3h6.7v1.2h-6.7V43.3z M161.9,45h6.7v1.2h-6.7V45z M161.6,61.1v-1.4
		l1,1.4H161.6z M165.3,56.2c-0.2,0-0.3-0.2-0.3-0.3c0-0.2,0.2-0.3,0.3-0.3c0.2,0,0.3,0.2,0.3,0.3C165.6,56,165.4,56.2,165.3,56.2
		 M165.3,55.3c-0.4,0-0.7-0.3-0.7-0.7c0-0.4,0.3-0.7,0.7-0.7s0.7,0.3,0.7,0.7C166,55,165.7,55.3,165.3,55.3 M169,61.1h-1.1l1.1-1.4
		V61.1z"/>
</g>
</svg>
