<?xml version="1.0" encoding="utf-8"?>
<!-- Generator: Adobe Illustrator 22.1.0, SVG Export Plug-In . SVG Version: 6.00 Build 0)  -->
<svg version="1.1" id="Layer_1" xmlns="http://www.w3.org/2000/svg" xmlns:xlink="http://www.w3.org/1999/xlink" x="0px" y="0px"
	 viewBox="0 0 1566.7 72" style="enable-background:new 0 0 1566.7 72;" xml:space="preserve">
<style type="text/css">
	.st0{fill:#ACDFE8;}
	.st1{fill:#2AB4C7;}
</style>
<path id="wave2" class="st0" d="M1512.9,49c-7.5,3.2-15.8,5-24.4,5c-27.3,0-50.5-17.5-59-41.9c-8.5,24.4-31.7,41.9-59,41.9
	c-31.6,0-57.8-23.5-61.9-54h-1.2c-4.1,30.5-30.3,54-61.9,54c-27.3,0-50.5-17.5-59-41.9c-8.5,24.4-31.7,41.9-59,41.9
	c-31.6,0-57.8-23.5-61.9-54h-2.2c-4.1,30.5-30.3,54-61.9,54c-27.3,0-50.5-17.5-59-41.9C934,36.5,910.8,54,883.5,54
	c-31.6,0-57.8-23.5-61.9-54h-1.2c-4.1,30.5-30.3,54-61.9,54c-27.3,0-50.5-17.5-59-41.9C691,36.5,667.8,54,640.5,54
	c-31.6,0-57.8-23.5-61.9-54h-1.2c-4.1,30.5-30.3,54-61.9,54c-27.3,0-50.5-17.5-59-41.9C448,36.5,424.8,54,397.5,54
	c-31.6,0-57.8-23.5-61.9-54h-1.2c-4.1,30.5-30.3,54-61.9,54c-27.3,0-50.5-17.5-59-41.9C205,36.5,181.8,54,154.5,54
	c-31.6,0-57.8-23.5-61.9-54h-2.2c-4.1,30.5-30.3,54-61.9,54C1.2,54-22,36.5-30.5,12.1C-37.8,33-55.8,48.8-78,52.9V72h1591.3"/>
<path id="wave1" class="st1" d="M106.5,54c-27.3,0-50.5-17.5-59-41.9C40.2,33,22.2,48.8,0,52.9V72h1566.3c0,0,0.7-18,0.2-18
	c-37.5,0-50.5-17.5-59-41.9c-8.5,24.4-31.7,41.9-59,41.9c-31.6,0-57.8-23.5-61.9-54h-1.2c-4.1,30.5-30.3,54-61.9,54
	c-27.3,0-50.5-17.5-59-41.9c-8.5,24.4-31.7,41.9-59,41.9c-31.6,0-57.8-23.5-61.9-54h-2.2c-4.1,30.5-30.3,54-61.9,54
	c-27.3,0-50.5-17.5-59-41.9c-8.5,24.4-31.7,41.9-59,41.9c-31.6,0-57.8-23.5-61.9-54h-1.2c-4.1,30.5-30.3,54-61.9,54
	c-27.3,0-50.5-17.5-59-41.9C769,36.5,745.8,54,718.5,54c-31.6,0-57.8-23.5-61.9-54h-1.2c-4.1,30.5-30.3,54-61.9,54
	c-27.3,0-50.5-17.5-59-41.9C526,36.5,502.8,54,475.5,54c-31.6,0-57.8-23.5-61.9-54h-1.2c-4.1,30.5-30.3,54-61.9,54
	c-27.3,0-50.5-17.5-59-41.9C283,36.5,259.8,54,232.5,54c-31.6,0-57.8-23.5-61.9-54h-2.2C164.3,30.5,138.1,54,106.5,54z"/>
</svg>
